<?xml version="1.0" encoding="UTF-8" standalone="no"?>
<!DOCTYPE svg PUBLIC "-//W3C//DTD SVG 1.1//EN" "http://www.w3.org/Graphics/SVG/1.1/DTD/svg11.dtd">
<svg width="100%" height="100%" viewBox="0 0 44 44" version="1.1" xmlns="http://www.w3.org/2000/svg" xmlns:xlink="http://www.w3.org/1999/xlink" xml:space="preserve" xmlns:serif="http://www.serif.com/" style="fill-rule:evenodd;clip-rule:evenodd;stroke-miterlimit:2;">
    <g transform="matrix(1,0,0,1,-149,-108)">
        <g id="project-list_status-bar-icon_Auto" transform="matrix(1,0,0,1.04762,-3,110.095)">
            <rect x="152" y="-2" width="44" height="42" style="fill:none;"/>
            <g transform="matrix(0.171171,0,0,0.381818,158.631,0.481818)">
                <rect x="8" y="6" width="111" height="15" style="fill:white;"/>
            </g>
            <g transform="matrix(0.189189,0,0,0.381818,161.486,8.92406)">
                <rect x="8" y="6" width="111" height="15" style="fill:white;"/>
            </g>
            <g transform="matrix(0.170787,0,0,0.381818,172.634,17.6636)">
                <rect x="8" y="6" width="111" height="15" style="fill:white;"/>
            </g>
            <g transform="matrix(0.153153,0,0,0.381818,172.775,26.2545)">
                <rect x="8" y="6" width="111" height="15" style="fill:white;"/>
            </g>
            <g transform="matrix(0.5,0,0,0.477273,74.4303,19.3286)">
                <path d="M159.139,-14.689L163.139,-14.689L167.139,-10.689L171.139,-14.689L175.139,-14.689L167.139,-6.689L159.139,-14.689Z" style="fill:white;"/>
            </g>
            <g transform="matrix(3.06162e-17,-0.477273,0.5,2.92245e-17,160.93,85.3409)">
                <path d="M159,-12L163,-11.861L167,-7.861L171,-11.861L175,-12L167,-3.861L159,-12Z" style="fill:white;"/>
            </g>
            <g transform="matrix(2,0,0,1.90909,-153,-10.5909)">
                <circle cx="160.5" cy="17.5" r="1.5" style="fill:white;"/>
            </g>
            <g transform="matrix(2,0,0,1.90909,-153,-2)">
                <circle cx="160.5" cy="17.5" r="1.5" style="fill:white;"/>
            </g>
            <g transform="matrix(1,0,0,0.954545,-51.2588,-50.7216)">
                <g transform="matrix(26.6667,0,0,26.6667,244.164,92)">
                </g>
                <text x="226px" y="92px" style="font-family:'Roboto-Black', 'Roboto Black';font-weight:900;font-size:26.667px;fill:none;stroke:rgb(24,24,24);stroke-width:2.67px;">A</text>
                <g transform="matrix(26.6667,0,0,26.6667,244.164,92)">
                </g>
                <text x="226px" y="92px" style="font-family:'Roboto-Black', 'Roboto Black';font-weight:900;font-size:26.667px;fill:white;">A</text>
            </g>
        </g>
    </g>
</svg>
