<?xml version="1.0" encoding="UTF-8" standalone="no"?>
<!DOCTYPE svg PUBLIC "-//W3C//DTD SVG 1.1//EN" "http://www.w3.org/Graphics/SVG/1.1/DTD/svg11.dtd">
<svg width="100%" height="100%" viewBox="0 0 44 44" version="1.1" xmlns="http://www.w3.org/2000/svg" xmlns:xlink="http://www.w3.org/1999/xlink" xml:space="preserve" xmlns:serif="http://www.serif.com/" style="fill-rule:evenodd;clip-rule:evenodd;stroke-linecap:square;stroke-linejoin:round;stroke-miterlimit:2;">
    <g transform="matrix(1,0,0,1,-149,0)">
        <g id="project-list_status-bar-icon_Off" transform="matrix(1,0,0,1.04762,-3,2.09524)">
            <rect x="152" y="-2" width="44" height="42" style="fill:none;"/>
            <clipPath id="_clip1">
                <rect x="152" y="-2" width="44" height="42"/>
            </clipPath>
            <g clip-path="url(#_clip1)">
                <g transform="matrix(0.171171,0,0,0.381818,158.631,1.43636)">
                    <rect x="8" y="6" width="111" height="15" style="fill:white;"/>
                </g>
                <g transform="matrix(0.216216,0,0,0.381818,161.27,10.0273)">
                    <rect x="8" y="6" width="111" height="15" style="fill:white;"/>
                </g>
                <g transform="matrix(0.171171,0,0,0.381033,172.631,18.6347)">
                    <rect x="8" y="6" width="111" height="15" style="fill:white;"/>
                </g>
                <g transform="matrix(0.153153,0,0,0.381818,172.775,27.2091)">
                    <rect x="8" y="6" width="111" height="15" style="fill:white;"/>
                </g>
                <g transform="matrix(0.5,0,0,0.477273,74.4303,20.2832)">
                    <path d="M159.139,-14.689L163.139,-14.689L167.139,-10.689L171.139,-14.689L175.139,-14.689L167.139,-6.689L159.139,-14.689Z" style="fill:white;"/>
                </g>
                <g transform="matrix(3.06162e-17,-0.477273,0.491433,2.87238e-17,160.827,86.2955)">
                    <path d="M159,-12L163,-11.861L167,-7.861L171,-11.861L175,-12L167,-3.861L159,-12Z" style="fill:white;"/>
                </g>
                <g transform="matrix(2,0,0,1.90909,-153,-9.63636)">
                    <circle cx="160.5" cy="17.5" r="1.5" style="fill:white;"/>
                </g>
                <g transform="matrix(2,0,0,1.90909,-153,-1.04545)">
                    <circle cx="160.5" cy="17.5" r="1.5" style="fill:white;"/>
                </g>
                <g transform="matrix(1.12287,-0.117768,-0.123273,1.07268,-53.8209,60.9462)">
                    <path d="M214.667,-30.653L187.378,-3.404" style="fill:none;stroke:rgb(24,24,24);stroke-width:10.67px;"/>
                    <path d="M214.667,-30.653L187.378,-3.404" style="fill:none;stroke:white;stroke-width:5.33px;stroke-miterlimit:1.5;"/>
                </g>
            </g>
        </g>
    </g>
</svg>
